<svg width="484" height="484" viewBox="0 0 484 484" fill="none" xmlns="http://www.w3.org/2000/svg">
<path d="M0 0V66.7586H83.4483H484V0H0Z" fill="#16359B"/>
<path d="M41.7241 25.0344H25.0344V41.7241H41.7241V25.0344Z" fill="#2A4CB9"/>
<path d="M75.1035 25.0344H58.4138V41.7241H75.1035V25.0344Z" fill="#2A4CB9"/>
<path d="M108.483 25.0344H91.7931V41.7241H108.483V25.0344Z" fill="#2A4CB9"/>
<path d="M458.966 25.0344H442.276V41.7241H458.966V25.0344Z" fill="#2A4CB9"/>
<path d="M484 66.7587H0V484H484V66.7587Z" fill="#16359B"/>
<path d="M484 91.0419V484H62.4192C185.923 440.607 405.308 331.79 484 91.0419Z" fill="#102465"/>
<path d="M433.931 283.724H50.069V433.931H433.931V283.724Z" fill="#2A4CB9"/>
<path d="M433.931 166.896H50.069V250.345H433.931V166.896Z" fill="#2A4CB9"/>
<path d="M58.4138 108.483H41.7241V125.172H58.4138V108.483Z" fill="#2A4CB9"/>
<path d="M442.276 108.483H75.1034V125.172H442.276V108.483Z" fill="#2A4CB9"/>
<path d="M484 66.7587H0V83.4483H484V66.7587Z" fill="#2A4CB9"/>
</svg>
