<svg width="484" height="484" viewBox="0 0 484 484" fill="none" xmlns="http://www.w3.org/2000/svg">
<path d="M378.782 242C378.782 245.577 378.782 249.049 378.782 252.521C376.586 281.654 365.035 309.296 345.849 331.329C341.895 335.986 337.604 340.346 333.013 344.376L330.382 346.586C311.228 362.849 287.9 373.419 263.043 377.099C256.089 378.252 249.049 378.815 242 378.782C234.955 378.799 227.92 378.271 220.956 377.204C196.198 373.339 172.977 362.748 153.827 346.586C148.237 341.96 143.062 336.855 138.361 331.329C119.309 309.243 107.873 281.611 105.743 252.521C105.355 249.028 105.18 245.514 105.217 242C105.217 238.422 105.217 234.95 105.217 231.478C107.141 207.549 115.291 184.54 128.858 164.735C142.424 144.931 160.935 129.019 182.552 118.58C194.688 112.764 207.637 108.826 220.956 106.9C227.911 105.753 234.95 105.19 242 105.217C277.407 105.278 311.389 119.173 336.695 143.937C341.855 148.776 346.54 154.096 350.689 159.825C366.797 180.483 376.557 205.376 378.782 231.478C378.782 234.95 378.782 238.422 378.782 242Z" fill="#102465"/>
<path d="M378.781 242C378.813 261.369 374.709 280.522 366.744 298.177C358.778 315.832 347.134 331.583 332.591 344.376C302.838 358.554 268.966 361.512 237.206 352.707C205.446 343.901 177.933 323.924 159.728 296.45C141.523 268.976 133.85 235.853 138.121 203.173C142.391 170.493 158.318 140.453 182.972 118.58C203.824 108.604 226.865 104.076 249.942 105.419C273.019 106.761 295.379 113.93 314.934 126.256C334.49 138.582 350.602 155.663 361.767 175.903C372.933 196.144 378.786 218.884 378.781 242Z" fill="#2A4CB9"/>
<path d="M484 242C484 250.372 480.674 258.4 474.755 264.32C468.835 270.24 460.806 273.565 452.435 273.565C444.063 273.565 436.035 270.24 430.115 264.32C424.195 258.4 420.87 250.372 420.87 242C420.87 233.628 424.195 225.6 430.115 219.68C436.035 213.76 444.063 210.435 452.435 210.435C460.806 210.435 468.835 213.76 474.755 219.68C480.674 225.6 484 233.628 484 242Z" fill="#16359B"/>
<path d="M484 242C483.992 247.792 482.39 253.471 479.371 258.414C474.428 261.434 468.749 263.036 462.957 263.044C454.585 263.044 446.556 259.718 440.637 253.798C434.717 247.879 431.391 239.85 431.391 231.478C431.399 225.686 433.001 220.007 436.021 215.064C440.964 212.044 446.642 210.443 452.435 210.435C460.806 210.435 468.835 213.76 474.755 219.68C480.674 225.6 484 233.628 484 242Z" fill="#2A4CB9"/>
<path d="M31.5652 273.565C48.9982 273.565 63.1304 259.433 63.1304 242C63.1304 224.567 48.9982 210.435 31.5652 210.435C14.1322 210.435 0 224.567 0 242C0 259.433 14.1322 273.565 31.5652 273.565Z" fill="#16359B"/>
<path d="M273.565 31.5652C273.565 39.9368 270.24 47.9656 264.32 53.8852C258.4 59.8048 250.372 63.1304 242 63.1304C233.628 63.1304 225.6 59.8048 219.68 53.8852C213.76 47.9656 210.435 39.9368 210.435 31.5652C210.435 23.1936 213.76 15.1649 219.68 9.24524C225.6 3.32561 233.628 0 242 0C250.372 0 258.4 3.32561 264.32 9.24524C270.24 15.1649 273.565 23.1936 273.565 31.5652Z" fill="#16359B"/>
<path d="M273.565 31.5652C273.557 37.3577 271.956 43.0362 268.936 47.9791C263.993 50.9991 258.314 52.6008 252.522 52.6087C244.15 52.6087 236.121 49.2831 230.202 43.3635C224.282 37.4438 220.957 29.4151 220.957 21.0435C220.964 15.251 222.566 9.57245 225.586 4.62957C230.529 1.60957 236.208 0.00791977 242 0C250.372 0 258.4 3.32561 264.32 9.24524C270.24 15.1649 273.565 23.1936 273.565 31.5652Z" fill="#2A4CB9"/>
<path d="M242 484C259.433 484 273.565 469.868 273.565 452.435C273.565 435.002 259.433 420.87 242 420.87C224.567 420.87 210.435 435.002 210.435 452.435C210.435 469.868 224.567 484 242 484Z" fill="#16359B"/>
<path d="M378.782 252.521C378.782 249.049 378.782 245.577 378.782 242C378.782 238.422 378.782 234.95 378.782 231.478H315.652C314.803 214.077 311.727 196.856 306.498 180.237C322.131 175.837 337.049 169.211 350.794 160.561L351.741 159.825C347.593 154.096 342.907 148.776 337.747 143.937C325.632 151.237 312.567 156.831 298.922 160.561C289.958 140.812 277.84 122.652 263.043 106.795C256.08 105.728 249.044 105.2 242 105.217C234.95 105.19 227.911 105.753 220.956 106.9C206.355 122.764 194.417 140.885 185.603 160.561C172.141 156.786 159.256 151.193 147.304 143.937C142.198 148.82 137.483 154.097 133.205 159.72C133.507 160.056 133.862 160.341 134.257 160.561C148.002 169.211 162.921 175.837 178.554 180.237C173.146 196.832 169.893 214.054 168.874 231.478H105.217C105.217 234.95 105.217 238.422 105.217 242C105.18 245.514 105.355 249.028 105.743 252.521H168.874C169.866 273.306 174.164 293.799 181.605 313.232C167.304 317.093 153.525 322.675 140.57 329.856C139.811 330.259 139.104 330.754 138.466 331.329C143.167 336.855 148.343 341.96 153.933 346.586C165.441 340.537 177.626 335.874 190.233 332.697C198.379 348.875 208.717 363.852 220.956 377.204C227.92 378.271 234.955 378.799 242 378.782C249.049 378.815 256.089 378.252 263.043 377.099C275.351 363.817 285.729 348.87 293.872 332.697C306.465 335.81 318.623 340.475 330.067 346.586L332.697 344.376C337.289 340.346 341.579 335.986 345.534 331.329C344.861 330.643 344.079 330.074 343.219 329.646C330.328 322.614 316.663 317.106 302.5 313.232C310.085 293.823 314.524 273.329 315.652 252.521H378.782ZM242 115.739C256.539 130.205 268.464 147.078 277.248 165.612C265.594 167.493 253.804 168.408 242 168.347C230.189 168.338 218.4 167.353 206.752 165.401C215.556 146.942 227.48 130.141 242 115.739ZM242 368.26C230.033 356.43 219.797 342.969 211.592 328.278C231.746 325.191 252.253 325.191 272.408 328.278C264.203 342.969 253.966 356.43 242 368.26ZM281.772 308.392C255.459 303.761 228.54 303.761 202.227 308.392C195.174 290.543 191.018 271.682 189.917 252.521H294.608C293.362 271.782 289.028 290.717 281.772 308.602V308.392ZM189.917 231.478C190.783 215.764 193.72 200.233 198.65 185.287C212.933 188.053 227.451 189.427 242 189.391C256.548 189.427 271.066 188.053 285.349 185.287C290.459 200.209 293.572 215.74 294.608 231.478H189.917Z" fill="#16359B"/>
<path d="M165.929 34.4066C135.783 45.4636 108.409 62.9581 85.7133 85.6721C63.0175 108.386 45.545 135.774 34.5121 165.928C33.5644 168.551 33.6971 171.444 34.8809 173.969C36.0647 176.494 38.2027 178.446 40.8251 179.396C41.9719 179.812 43.1824 180.026 44.4025 180.027C46.5523 180.034 48.6527 179.383 50.421 178.16C52.1892 176.937 53.5405 175.202 54.2929 173.188C64.2739 145.905 80.0814 121.125 100.615 100.574C121.148 80.022 145.914 64.1926 173.189 54.1875C175.812 53.2247 177.945 51.2594 179.119 48.7238C180.293 46.1882 180.412 43.2901 179.449 40.667C178.486 38.0439 176.521 35.9107 173.985 34.7366C171.45 33.5626 168.552 33.4438 165.929 34.4066ZM443.176 305.131C440.553 304.183 437.661 304.316 435.136 305.5C432.61 306.684 430.658 308.822 429.709 311.444C419.692 338.605 403.876 363.256 383.36 383.681C362.845 404.106 338.123 419.813 310.918 429.708C308.593 430.552 306.64 432.188 305.401 434.329C304.162 436.47 303.717 438.979 304.144 441.415C304.571 443.851 305.843 446.059 307.736 447.651C309.629 449.243 312.022 450.118 314.496 450.12C315.716 450.119 316.926 449.905 318.073 449.489C348.208 438.443 375.575 420.965 398.27 398.27C420.965 375.575 438.444 348.208 449.489 318.073C450.279 315.517 450.066 312.757 448.893 310.353C447.721 307.949 445.677 306.082 443.176 305.131ZM173.189 429.814C145.914 419.808 121.148 403.979 100.615 383.427C80.0814 362.876 64.2739 338.096 54.2929 310.813C53.3302 308.19 51.3649 306.056 48.8293 304.882C46.2937 303.708 43.3956 303.589 40.7725 304.552C38.1494 305.515 36.0162 307.48 34.8421 310.016C33.668 312.551 33.5493 315.45 34.5121 318.073C45.545 348.227 63.0175 375.615 85.7133 398.329C108.409 421.043 135.783 438.537 165.929 449.594C167.075 450.011 168.286 450.224 169.506 450.226C171.989 450.248 174.399 449.391 176.311 447.808C178.223 446.224 179.514 444.016 179.955 441.573C180.395 439.129 179.958 436.609 178.72 434.457C177.482 432.305 175.522 430.66 173.189 429.814ZM310.918 54.2927C338.177 64.2444 362.931 80.032 383.45 100.551C403.969 121.07 419.757 145.825 429.709 173.083C430.444 175.117 431.788 176.874 433.557 178.117C435.327 179.359 437.437 180.027 439.599 180.027C440.819 180.026 442.03 179.812 443.176 179.396C445.799 178.446 447.937 176.494 449.121 173.969C450.304 171.444 450.437 168.551 449.489 165.928C438.444 135.793 420.965 108.426 398.27 85.7311C375.575 63.036 348.208 45.5576 318.073 34.5118C316.764 33.9961 315.365 33.7481 313.959 33.7824C312.552 33.8168 311.167 34.1328 309.885 34.7118C308.603 35.2908 307.45 36.121 306.494 37.1534C305.539 38.1858 304.8 39.3993 304.321 40.7222C303.843 42.0451 303.634 43.4505 303.709 44.8553C303.783 46.2602 304.138 47.6359 304.753 48.9011C305.368 50.1663 306.23 51.2953 307.289 52.2214C308.348 53.1475 309.582 53.8518 310.918 54.2927Z" fill="#102465"/>
<path d="M273.565 452.435C273.557 458.227 271.956 463.906 268.936 468.849C263.993 471.869 258.314 473.47 252.522 473.478C244.15 473.478 236.121 470.153 230.202 464.233C224.282 458.313 220.957 450.285 220.957 441.913C220.964 436.121 222.566 430.442 225.586 425.499C230.529 422.479 236.208 420.878 242 420.87C250.372 420.87 258.4 424.195 264.32 430.115C270.24 436.035 273.565 444.063 273.565 452.435ZM63.1304 242C63.1225 247.792 61.5209 253.471 58.5009 258.414C53.558 261.434 47.8794 263.036 42.0869 263.044C33.7153 263.044 25.6866 259.718 19.767 253.798C13.8473 247.879 10.5217 239.85 10.5217 231.478C10.5296 225.686 12.1313 220.007 15.1513 215.064C20.0942 212.044 25.7728 210.443 31.5652 210.435C39.9368 210.435 47.9656 213.76 53.8852 219.68C59.8048 225.6 63.1304 233.628 63.1304 242Z" fill="#2A4CB9"/>
</svg>
