<svg width="530" height="484" viewBox="0 0 530 484" fill="none" xmlns="http://www.w3.org/2000/svg">
<path d="M519.913 150.587C514.442 149.728 509.997 146.215 507.86 141.531C507.774 141.453 507.774 141.453 507.774 141.375C505.637 136.691 506.065 131.383 509.227 127.245L515.126 119.595L496.576 102.655L488.113 108.041C483.582 111.008 477.684 111.32 472.64 109.368C472.555 109.368 472.555 109.29 472.469 109.29C467.34 107.339 463.408 103.279 462.553 98.2833L460.844 89.0717H434.6L432.89 98.2833C431.95 103.279 428.103 107.339 422.974 109.29C422.889 109.368 422.889 109.368 422.803 109.368C417.674 111.32 411.776 111.008 407.245 108.041L398.868 102.655L380.318 119.595L386.216 127.245C389.465 131.383 389.806 136.769 387.669 141.375C387.669 141.453 387.584 141.531 387.584 141.531C385.447 146.215 381.002 149.728 375.531 150.587L365.444 152.148V176.114L375.531 177.675C381.002 178.534 385.361 182.047 387.584 186.73C387.584 186.809 387.669 186.809 387.669 186.887C389.806 191.57 389.465 196.879 386.216 201.016L380.318 208.745L398.868 225.685L407.245 220.298C411.776 217.332 417.674 217.019 422.803 218.971C422.889 219.049 422.889 219.049 422.974 219.049C428.103 221.001 432.035 224.982 432.89 230.056L434.6 239.268H460.844L462.553 230.056C463.494 225.06 467.34 221.001 472.469 219.049C472.555 218.971 472.555 218.971 472.64 218.971C477.769 217.019 483.582 217.332 488.113 220.298L496.576 225.685L515.126 208.745L509.227 201.016C505.979 196.879 505.637 191.492 507.774 186.887C507.774 186.809 507.86 186.73 507.86 186.73C509.997 182.047 514.442 178.534 519.913 177.675L530 176.114V152.148L519.913 150.587ZM447.679 196.723C428.018 196.723 412.032 182.203 412.032 164.17C412.032 146.137 428.018 131.617 447.679 131.617C467.426 131.617 483.411 146.137 483.411 164.17C483.411 182.203 467.426 196.723 447.679 196.723ZM338.345 40.7497C338.345 63.2323 262.606 81.4994 169.087 81.4994C75.7387 81.5775 0 63.3104 0 40.7497C0 18.2671 75.7387 0 169.087 0C262.606 0 338.345 18.2671 338.345 40.7497ZM0 270.884C0 293.367 75.7387 311.634 169.087 311.634C262.606 311.634 338.345 293.367 338.345 270.884V347.621C338.345 370.104 262.606 388.371 169.087 388.371C75.7387 388.371 0 370.104 0 347.621V270.884Z" fill="#102465"/>
<path d="M0 194.147C0 216.63 75.7387 234.897 169.087 234.897C262.607 234.897 338.345 216.63 338.345 194.147V270.885C338.345 293.368 262.607 311.635 169.087 311.635C75.7387 311.635 0 293.368 0 270.885V194.147Z" fill="#16359B"/>
<path d="M0 117.488C0 139.97 75.7387 158.238 169.087 158.238C262.607 158.238 338.345 139.97 338.345 117.488V194.225C338.345 216.708 262.607 234.975 169.087 234.975C75.7387 234.897 0 216.708 0 194.147V117.488Z" fill="#2A4CB9"/>
<path d="M0 40.7495C0 63.2321 75.7387 81.4992 169.087 81.4992C262.607 81.4992 338.345 63.2321 338.345 40.7495V117.487C338.345 139.97 262.607 158.237 169.087 158.237C75.7387 158.237 0 139.97 0 117.487V40.7495Z" fill="#102465"/>
<path opacity="0.3" d="M338.346 250.119V40.7497C338.346 18.2671 262.608 0 169.174 0C162.848 0 156.608 0.0780643 150.453 0.234193V156.129C150.453 208.042 196.529 250.119 253.375 250.119H338.346Z" fill="#2A4CB9"/>
<path opacity="0.3" d="M337.063 231.617H338.345V40.7493C338.345 19.2815 269.188 1.63893 181.482 0.0776367C181.482 18.1886 197.553 32.8648 217.385 32.8648H301.245V198.83C301.159 216.941 317.23 231.617 337.063 231.617Z" fill="white"/>
<path d="M444.261 342.078C435.456 340.673 428.361 335.053 425.027 327.558C424.941 327.48 424.941 327.402 424.856 327.246C421.522 319.752 422.121 311.243 427.25 304.607L436.738 292.351L406.99 265.185L393.483 273.85C386.217 278.534 376.9 279.08 368.693 275.958C368.608 275.958 368.522 275.88 368.437 275.88C360.145 272.757 353.99 266.278 352.537 258.237L349.801 243.483H307.743L305.008 258.237C303.554 266.278 297.314 272.757 289.108 275.802C289.022 275.88 288.937 275.88 288.851 275.958C280.559 279.002 271.241 278.534 263.975 273.85L250.554 265.185L220.806 292.351L230.295 304.607C235.424 311.243 236.022 319.752 232.603 327.246C232.603 327.402 232.517 327.48 232.517 327.558C229.183 335.131 222.003 340.673 213.283 342.078L197.127 344.577V382.906L213.283 385.404C222.003 386.809 229.098 392.43 232.517 399.924C232.517 400.002 232.603 400.08 232.603 400.237C236.022 407.731 235.424 416.24 230.295 422.875L220.806 435.21L250.554 462.298L263.975 453.711C271.241 448.949 280.559 448.48 288.851 451.525C288.937 451.603 289.022 451.603 289.108 451.681C297.4 454.726 303.554 461.205 305.008 469.246L307.743 484H349.801L352.537 469.246C353.99 461.205 360.23 454.726 368.437 451.681C368.522 451.603 368.608 451.603 368.693 451.525C376.9 448.48 386.217 448.949 393.483 453.633L406.99 462.298L436.738 435.21L427.25 422.875C422.121 416.24 421.522 407.731 424.941 400.237C424.941 400.08 425.027 400.002 425.027 399.924C428.446 392.43 435.542 386.809 444.261 385.404L460.417 382.906V344.577L444.261 342.078ZM328.687 415.85C297.229 415.85 271.669 392.586 271.669 363.78C271.669 334.975 297.229 311.711 328.687 311.711C360.23 311.711 385.79 334.975 385.79 363.78C385.79 392.586 360.23 415.85 328.687 415.85Z" fill="#2A4CB9"/>
</svg>
