<svg width="608" height="484" viewBox="0 0 608 484" fill="none" xmlns="http://www.w3.org/2000/svg">
<path d="M156.595 306.323L140.998 291.693L79.6421 234.596L156.595 162.979L116.825 125.858L79.5404 160.682L39.6539 197.694L0 234.596L116.825 343.334L156.595 306.323Z" fill="#2A4CB9"/>
<path d="M1.68384 235.059L118.509 343.334L158.279 306.48L142.682 291.913L81.326 235.059H1.68384Z" fill="#102465"/>
<path d="M450.421 306.323L466.018 291.693L527.374 234.596L450.421 162.979L490.192 125.858L527.476 160.682L567.363 197.694L607.017 234.596L490.192 343.334L450.421 306.323Z" fill="#2A4CB9"/>
<path d="M605.333 235.059L488.508 343.334L448.738 306.48L464.335 291.913L525.691 235.059H605.333Z" fill="#102465"/>
<path d="M450.421 67.8624L387.905 0L157.437 416.138L222.752 484L450.421 67.8624Z" fill="#102465"/>
</svg>
