<svg width="602" height="480" viewBox="0 0 602 480" fill="none" xmlns="http://www.w3.org/2000/svg">
<path d="M155.301 303.791L139.833 289.283L78.9839 232.658L155.301 161.633L115.859 124.818L78.883 159.355L39.3262 196.06L0 232.658L115.859 340.497L155.301 303.791Z" fill="#2A4CB9"/>
<path d="M1.66992 233.117L117.529 340.497L156.971 303.947L141.503 289.5L80.6539 233.117H1.66992Z" fill="#102465"/>
<path d="M446.699 303.791L462.167 289.283L523.016 232.658L446.699 161.633L486.141 124.818L523.117 159.355L562.674 196.06L602 232.658L486.141 340.497L446.699 303.791Z" fill="#2A4CB9"/>
<path d="M600.33 233.117L484.471 340.497L445.029 303.947L460.497 289.5L521.346 233.117H600.33Z" fill="#102465"/>
<path d="M446.699 67.3016L384.7 0L156.136 412.698L220.911 480L446.699 67.3016Z" fill="#102465"/>
</svg>
