<svg width="64" height="59" viewBox="0 0 64 59" fill="none" xmlns="http://www.w3.org/2000/svg">
<path d="M28.7027 32.1818C28.0719 32.1818 27.4553 32.3391 26.9309 32.6338C26.4064 32.9285 25.9977 33.3473 25.7563 33.8373C25.5149 34.3274 25.4517 34.8666 25.5748 35.3868C25.6978 35.9071 26.0016 36.3849 26.4476 36.76C26.8936 37.135 27.4619 37.3904 28.0805 37.4939C28.6992 37.5974 29.3404 37.5443 29.9232 37.3413C30.5059 37.1383 31.004 36.7946 31.3544 36.3536C31.7048 35.9126 31.8919 35.3941 31.8919 34.8636C31.8919 34.1524 31.5559 33.4702 30.9578 32.9673C30.3597 32.4644 29.5485 32.1818 28.7027 32.1818ZM15.9459 32.1818C15.3152 32.1818 14.6986 32.3391 14.1741 32.6338C13.6497 32.9285 13.2409 33.3473 12.9995 33.8373C12.7581 34.3274 12.695 34.8666 12.818 35.3868C12.9411 35.9071 13.2448 36.3849 13.6908 36.76C14.1369 37.135 14.7051 37.3904 15.3238 37.4939C15.9424 37.5974 16.5836 37.5443 17.1664 37.3413C17.7491 37.1383 18.2472 36.7946 18.5977 36.3536C18.9481 35.9126 19.1351 35.3941 19.1351 34.8636C19.1351 34.1524 18.7991 33.4702 18.201 32.9673C17.603 32.4644 16.7918 32.1818 15.9459 32.1818ZM63.7838 8.04545C63.7838 5.91167 62.7758 3.86527 60.9815 2.35646C59.1872 0.847644 56.7537 0 54.2162 0H9.56757C7.03009 0 4.59654 0.847644 2.80228 2.35646C1.00801 3.86527 0 5.91167 0 8.04545V18.7727C0.0140663 20.7574 0.900024 22.6677 2.48757 24.1364C0.900024 25.605 0.0140663 27.5153 0 29.5V40.2273C0 42.3611 1.00801 44.4075 2.80228 45.9163C4.59654 47.4251 7.03009 48.2727 9.56757 48.2727H28.7027V53.6364H3.18919C2.34336 53.6364 1.53218 53.9189 0.934092 54.4218C0.336003 54.9248 0 55.6069 0 56.3182C0 57.0294 0.336003 57.7116 0.934092 58.2145C1.53218 58.7175 2.34336 59 3.18919 59H60.5946C61.4404 59 62.2516 58.7175 62.8497 58.2145C63.4478 57.7116 63.7838 57.0294 63.7838 56.3182C63.7838 55.6069 63.4478 54.9248 62.8497 54.4218C62.2516 53.9189 61.4404 53.6364 60.5946 53.6364H35.0811V48.2727H54.2162C56.7537 48.2727 59.1872 47.4251 60.9815 45.9163C62.7758 44.4075 63.7838 42.3611 63.7838 40.2273V29.5C63.7697 27.5153 62.8838 25.605 61.2962 24.1364C62.8838 22.6677 63.7697 20.7574 63.7838 18.7727V8.04545ZM57.4054 40.2273C57.4054 40.9385 57.0694 41.6207 56.4713 42.1236C55.8732 42.6265 55.062 42.9091 54.2162 42.9091H9.56757C8.72174 42.9091 7.91056 42.6265 7.31247 42.1236C6.71438 41.6207 6.37838 40.9385 6.37838 40.2273V29.5C6.37838 28.7887 6.71438 28.1066 7.31247 27.6037C7.91056 27.1007 8.72174 26.8182 9.56757 26.8182H54.2162C55.062 26.8182 55.8732 27.1007 56.4713 27.6037C57.0694 28.1066 57.4054 28.7887 57.4054 29.5V40.2273ZM57.4054 18.7727C57.4054 19.484 57.0694 20.1661 56.4713 20.6691C55.8732 21.172 55.062 21.4545 54.2162 21.4545H9.56757C8.72174 21.4545 7.91056 21.172 7.31247 20.6691C6.71438 20.1661 6.37838 19.484 6.37838 18.7727V8.04545C6.37838 7.33419 6.71438 6.65206 7.31247 6.14912C7.91056 5.64618 8.72174 5.36364 9.56757 5.36364H54.2162C55.062 5.36364 55.8732 5.64618 56.4713 6.14912C57.0694 6.65206 57.4054 7.33419 57.4054 8.04545V18.7727ZM28.7027 10.7273C28.0719 10.7273 27.4553 10.8846 26.9309 11.1792C26.4064 11.4739 25.9977 11.8928 25.7563 12.3828C25.5149 12.8728 25.4517 13.4121 25.5748 13.9323C25.6978 14.4525 26.0016 14.9304 26.4476 15.3054C26.8936 15.6805 27.4619 15.9359 28.0805 16.0394C28.6992 16.1429 29.3404 16.0897 29.9232 15.8868C30.5059 15.6838 31.004 15.3401 31.3544 14.899C31.7048 14.458 31.8919 13.9395 31.8919 13.4091C31.8919 12.6978 31.5559 12.0157 30.9578 11.5128C30.3597 11.0098 29.5485 10.7273 28.7027 10.7273ZM15.9459 10.7273C15.3152 10.7273 14.6986 10.8846 14.1741 11.1792C13.6497 11.4739 13.2409 11.8928 12.9995 12.3828C12.7581 12.8728 12.695 13.4121 12.818 13.9323C12.9411 14.4525 13.2448 14.9304 13.6908 15.3054C14.1369 15.6805 14.7051 15.9359 15.3238 16.0394C15.9424 16.1429 16.5836 16.0897 17.1664 15.8868C17.7491 15.6838 18.2472 15.3401 18.5977 14.899C18.9481 14.458 19.1351 13.9395 19.1351 13.4091C19.1351 12.6978 18.7991 12.0157 18.201 11.5128C17.603 11.0098 16.7918 10.7273 15.9459 10.7273Z" fill="#2DA5E0"/>
</svg>
