<svg width="13" height="13" viewBox="0 0 13 13" fill="none" xmlns="http://www.w3.org/2000/svg">
<path d="M6.5 0C2.916 0 0 2.916 0 6.5C0 10.084 2.916 13 6.5 13C10.084 13 13 10.084 13 6.5C13 2.916 10.084 0 6.5 0ZM6.5 1C9.5435 1 12 3.4565 12 6.5C12 9.5435 9.5435 12 6.5 12C3.4565 12 1 9.5435 1 6.5C1 3.4565 3.4565 1 6.5 1ZM6.453 3.5C4.791 3.5 3.453 4.838 3.453 6.5C3.453 8.162 4.791 9.5 6.453 9.5C7.653 9.5 8.678 8.78 9.156 7.765L8.25 7.3435C7.9275 8.029 7.253 8.5 6.453 8.5C5.315 8.5 4.453 7.638 4.453 6.5C4.453 5.362 5.315 4.5 6.453 4.5C7.253 4.5 7.928 4.971 8.25 5.6565L9.1565 5.2345C8.6785 4.2195 7.653 3.4995 6.453 3.4995V3.5Z" fill="white"/>
</svg>
